<svg xmlns="http://www.w3.org/2000/svg" viewBox="0 0 502 271" width="502" height="271" preserveAspectRatio="xMidYMid meet" style="width: 100%; height: 100%; transform: translate3d(0px, 0px, 0px);"><defs><clipPath id="__lottie_element_2"><rect width="502" height="271" x="0" y="0"></rect></clipPath><filter id="__lottie_element_4" filterUnits="objectBoundingBox" x="0%" y="0%" width="100%" height="100%"><feComponentTransfer in="SourceGraphic"><feFuncA type="table" tableValues="1.0 0.0"></feFuncA></feComponentTransfer></filter><mask id="__lottie_element_3" mask-type="alpha"><g filter="url(#__lottie_element_4)"><rect width="502" height="271" x="0" y="0" fill="#ffffff" opacity="0"></rect><g style="display: block;" transform="matrix(4.559999942779541,0,0,4.559999942779541,261.2470397949219,152.3336181640625)" opacity="1"><g opacity="1" transform="matrix(1,0,0,1,4.25,4.25)"><path fill="rgb(255,60,0)" fill-opacity="1" d=" M0,4 C2.2090001106262207,4 4,2.2090001106262207 4,0 C4,-2.2090001106262207 2.2090001106262207,-4 0,-4 C-2.2090001106262207,-4 -4,-2.2090001106262207 -4,0 C-4,2.2090001106262207 -2.2090001106262207,4 0,4z"></path></g></g></g></mask><mask id="__lottie_element_8"><path fill="#ffffff" clip-rule="nonzero" d="M0,0  h502 v271 h-502 v-271  M474.8580017089844,122.14399719238281 C474.8580017089844,122.14399719238281 458.6080017089844,141.3939971923828 458.6080017089844,141.3939971923828 C458.6080017089844,141.3939971923828 472.6080017089844,149.3939971923828 472.6080017089844,149.3939971923828 C472.6080017089844,149.3939971923828 485.3580017089844,134.1439971923828 483.8580017089844,133.1439971923828 C482.3580017089844,132.1439971923828 474.8580017089844,122.14399719238281 474.8580017089844,122.14399719238281" fill-opacity="1"></path></mask></defs><g clip-path="url(#__lottie_element_2)"><g style="display: block;" transform="matrix(1,0,0,1,276.3770446777344,167.463623046875)" opacity="1"><g opacity="1" transform="matrix(1,0,0,1,4.25,4.25)"><path fill="rgb(255,60,0)" fill-opacity="1" d=" M0,4 C2.2090001106262207,4 4,2.2090001106262207 4,0 C4,-2.2090001106262207 2.2090001106262207,-4 0,-4 C-2.2090001106262207,-4 -4,-2.2090001106262207 -4,0 C-4,2.2090001106262207 -2.2090001106262207,4 0,4z"></path></g></g><g mask="url(#__lottie_element_3)" style="display: block;"><g mask="url(#__lottie_element_8)" transform="matrix(1,0,0,1,9.642013549804688,-38.14500427246094)" opacity="1"><g opacity="1" transform="matrix(1,0,0,1,237.5679931640625,171.531005859375)"><path stroke-linecap="butt" stroke-linejoin="bevel" fill-opacity="0" stroke="rgb(255,60,0)" stroke-opacity="1" stroke-width="4" d=" M-233.5679931640625,-22.527000427246094 C-150.22300720214844,66.5979995727539 -50.356998443603516,68.69200134277344 30.160999298095703,39.92300033569336"></path></g></g></g></g></svg>

